Results
version=1
nRows=10
nColumns=43
inDegrees=yes
endheader
time	pelvis_tilt	pelvis_list	pelvis_rotation	pelvis_tx	pelvis_ty	pelvis_tz	hip_flexion_r	hip_adduction_r	hip_rotation_r	knee_angle_r	ankle_angle_r	subtalar_angle_r	mtp_angle_r	hip_flexion_l	hip_adduction_l	hip_rotation_l	knee_angle_l	ankle_angle_l	subtalar_angle_l	mtp_angle_l	lumbar_extension	lumbar_bending	lumbar_rotation	neck_flexion	neck_lateral_bending	neck_rotation	arm_flex_r	arm_add_r	arm_rot_r	elbow_flex_r	pro_sup_r	wrist_flex_r	wrist_dev_r	hand_finger_flex_r	arm_flex_l	arm_add_l	arm_rot_l	elbow_flex_l	pro_sup_l	wrist_flex_l	wrist_dev_l	hand_finger_flex_l
      0.99500000	      2.33312415	      5.78892980	     -8.37030658	      0.77191331	      0.89932277	      0.35808759	     13.20396929	    -10.97404512	      0.40096233	    -70.54849207	     -2.50507084	    -14.62363802	      0.00000000	      5.49074884	      8.91383283	     -4.12461540	    -14.05885641	     16.90511025	     -8.79217395	      0.00000000	     -3.59537630	     -8.41592371	      1.42204968	     -9.76167001	     -1.66728491	      2.13196774	    -11.43622137	    -13.02722240	     -3.86721380	     55.35755285	    -77.65449666	     -4.28139633	    -17.28409258	      5.42886169	    -13.98027873	    -13.60507560	      0.19310498	     42.44844145	    -34.47837277	    -23.46742846	     -8.13069156	     -9.78522320
      1.00000000	      2.32272839	      5.96621642	     -8.16302814	      0.77804078	      0.89968585	      0.35759636	     14.02958106	    -11.13024442	      0.12806502	    -70.61571347	     -1.67533739	    -14.63184650	      0.00000000	      4.72675166	      9.20507327	     -4.03370319	    -13.36110409	     17.06984966	     -8.50520359	      0.00000000	     -3.61819084	     -8.61941572	      0.99391010	     -9.75563024	     -1.62141141	      2.33483710	    -11.61263897	    -12.90294003	     -3.53353283	     54.73159976	    -77.58351662	     -4.41189215	    -17.43393309	      5.30482823	    -13.35084330	    -13.95283977	      0.41786082	     42.67062956	    -34.15033213	    -22.97109450	     -8.05247597	     -9.60128354
      1.00500000	      2.46116237	      6.16741583	     -7.75659803	      0.78435317	      0.90051403	      0.35646269	     14.57274259	    -11.50135247	     -0.33732589	    -70.54450371	      0.45770554	    -12.73820939	      0.00000000	      3.87781560	      9.55726803	     -3.92190310	    -12.87270248	     16.96143991	     -7.89803016	      0.00000000	     -3.83326478	     -8.82734588	      0.14631010	     -9.84974330	     -1.37777752	      3.02133443	    -11.66017496	    -13.02416678	     -2.63552209	     54.06180157	    -76.92934395	     -4.70836370	    -17.81397248	      4.82516252	    -12.81836170	    -14.21493379	      0.75975770	     42.63488437	    -32.73625121	    -20.64193881	     -7.59864429	     -8.60685647
      1.01000000	      2.39961298	      6.23992364	     -7.60303285	      0.79040452	      0.90069373	      0.35614202	     15.50414918	    -11.44023132	     -0.40379444	    -70.55568249	      0.96050754	    -12.92608227	      0.00000000	      3.19044579	      9.71994278	     -3.62873823	    -12.24027530	     17.15868128	     -7.83665957	      0.00000000	     -3.82142786	     -8.87548809	     -0.10199761	     -9.81702429	     -1.47900875	      3.09419334	    -12.04110623	    -12.88551462	     -2.55159843	     53.68253217	    -76.85857865	     -4.73996063	    -17.87824377	      4.75972076	    -12.09060337	    -14.47440572	      0.55984560	     43.05492247	    -32.73632949	    -20.55939727	     -7.56279214	     -8.54246314
      1.01500000	      2.39577625	      6.34730922	     -7.42180368	      0.79633087	      0.90090876	      0.35558786	     16.32647126	    -11.42005800	     -0.47609977	    -70.54223295	      1.37900714	    -13.08898756	      0.00000000	      2.50176942	      9.93499798	     -3.30085905	    -11.70700803	     17.34151746	     -7.77333050	      0.00000000	     -3.90553473	     -8.96360379	     -0.44112891	     -9.72236939	     -1.50672718	      3.17984942	    -12.36953013	    -12.78973779	     -2.33345632	     53.29365647	    -76.68867499	     -4.76880958	    -17.92046559	      4.69447816	    -11.35740169	    -14.72757892	      0.35507497	     43.44088862	    -32.77832014	    -20.51815444	     -7.56750529	     -8.48526192
      1.02000000	      2.36462244	      6.49842547	     -7.11017562	      0.80228361	      0.90110399	      0.35461720	     17.09172218	    -11.49334480	     -0.68220507	    -70.40538057	      1.83032859	    -13.23791822	      0.00000000	      1.86274631	     10.20510492	     -2.90666713	    -11.21465805	     17.47902027	     -7.68079768	      0.00000000	     -3.97392743	     -9.06869431	     -0.97818808	     -9.68627293	     -1.54792865	      3.32510314	    -12.58988262	    -12.72685783	     -2.02089803	     52.91849904	    -76.46547261	     -4.81115449	    -17.97636921	      4.61520194	    -10.69592686	    -14.95867205	      0.21469320	     43.89199278	    -32.82494941	    -20.50876961	     -7.57567694	     -8.42175610
      1.02500000	      2.29645905	      6.71084707	     -6.75679378	      0.80818868	      0.90122198	      0.35351279	     17.90172535	    -11.65763732	     -0.93330565	    -70.22834559	      2.35870304	    -13.35419608	      0.00000000	      1.36100777	     10.53351621	     -2.56279570	    -10.88046492	     17.53315854	     -7.57855918	      0.00000000	     -3.99653506	     -9.23929753	     -1.58781534	     -9.67160697	     -1.57894867	      3.46526770	    -12.74527916	    -12.65672996	     -1.72015889	     52.54110567	    -76.29768291	     -4.91427547	    -18.08439367	      4.49317235	    -10.06644606	    -15.18798162	      0.01973237	     44.42581195	    -32.90336316	    -20.45520954	     -7.57519185	     -8.33066199
      1.03000000	      2.30267894	      6.86900869	     -6.43737264	      0.81404582	      0.90151250	      0.35274943	     18.55776678	    -11.67738295	     -1.04990557	    -69.83525242	      3.83688272	    -12.99060436	      0.00000000	      0.86093946	     10.77164323	     -2.36203163	    -10.72864122	     17.58711900	     -7.44111936	      0.00000000	     -4.11066321	     -9.41152025	     -2.23807259	     -9.65951134	     -1.53214469	      3.69733344	    -12.84340535	    -12.62304755	     -1.30519690	     52.08279731	    -76.11821154	     -5.19441925	    -18.32554230	      4.18727849	     -9.54960268	    -15.43023869	     -0.44999064	     45.09454374	    -33.18737975	    -20.27559276	     -7.65810656	     -8.11091906
      1.03500000	      2.27118079	      6.90734312	     -6.12631416	      0.81969098	      0.90162610	      0.35238043	     19.28944086	    -11.57601371	     -1.19999437	    -69.37796110	      4.10542785	    -12.92312752	      0.00000000	      0.44805224	     10.82608265	     -2.38750574	    -10.66212210	     17.63084063	     -7.40507498	      0.00000000	     -4.23369321	     -9.42150911	     -2.56488966	     -9.62438529	     -1.60973903	      3.77818611	    -13.20101477	    -12.51334488	     -1.20089906	     51.66104412	    -76.11351802	     -5.24229845	    -18.39611251	      4.13714196	     -8.72773203	    -15.66862555	     -0.60808344	     45.49747760	    -33.21143163	    -20.22346172	     -7.66365477	     -8.07343073
      1.04000000	      2.20504893	      7.09832505	     -5.43182765	      0.82558475	      0.90162464	      0.35054352	     19.84383763	    -12.13753554	     -2.06218883	    -68.94306397	      6.99383741	    -10.76341544	      0.00000000	     -0.02139921	     11.08824931	     -2.18765950	    -10.47091036	     17.94550027	     -6.29168851	      0.00000000	     -4.30953766	     -9.53385523	     -3.74422296	     -9.55943164	     -1.58556626	      4.18364246	    -13.16553835	    -12.63916763	     -0.29849319	     50.88360481	    -75.40254816	     -5.66393088	    -18.82434673	      3.41047487	     -8.31325698	    -15.85114469	     -1.09257861	     46.05176667	    -33.89069227	    -20.54502524	     -8.31778060	     -7.75320719
